<?xml version="1.0" encoding="UTF-8"?> <svg xmlns="http://www.w3.org/2000/svg" xmlns:xlink="http://www.w3.org/1999/xlink" width="545" height="428" viewBox="0 0 545 428"> <defs> <path id="a" d="M0 428h544.573V.171H0z"></path> </defs> <g fill="none" fill-rule="evenodd"> <path fill="#BE202E" d="M199 59h8V12h-8z"></path> <path fill="#F89521" d="M210 59h7V22h-7z"></path> <path fill="#4289C9" d="M221 59h8V30h-8z"></path> <path fill="#5CCBEF" d="M232 59h8V22h-8z"></path> <path fill="#404041" d="M467 40h-8l4-7 4-7 4 7 4 7z"></path> <path fill="#404041" d="M463 61h8V36h-8zM460 44.984l-4.001-6.991L452 31 448 37.993l-4 6.991h4.16V62h7.68V44.984zM483 31h-8l4-7.002L483 17l4 6.998L491 31z"></path> <path fill="#404041" d="M479 61h8V27h-8z"></path> <path stroke="#404041" stroke-width="1.042" d="M496 61h-57V12"></path> <g stroke="#404041" stroke-width=".6"> <path d="M.49 89.495h16.705V80.93H.49zM.49 105.34h16.705v-8.57H.49zM.49 121.183h16.705v-8.57H.49z"></path> </g> <path fill="#404041" d="M7 94.058l.748 1.47L8.5 97l.748-1.473.753-1.469h-.78V90H7.777v4.058zM7 110.056l.748 1.471L8.5 113l.748-1.473.753-1.47h-.78V106H7.777v4.056z"></path> <path stroke="#404041" stroke-width=".751" d="M9 81.097V74h30v12"></path> <g> <path fill="#404041" d="M38.99 121.767a40.314 40.314 0 0 1-16.866-3.725v-10.08c2.106 2.028 8.796 3.454 16.855 3.454 8.12 0 14.8-1.433 16.879-3.473v10.1a40.314 40.314 0 0 1-16.867 3.724z"></path> <path fill="#FFF" d="M56.188 106.783a.023.023 0 0 0-.01.004c-.443 2.393-7.975 4.298-17.199 4.298-9.15 0-16.632-1.875-17.186-4.24v11.408a40.383 40.383 0 0 0 34.396 0v-11.47zm-.661 1.869v9.179a40.007 40.007 0 0 1-16.537 3.605 39.994 39.994 0 0 1-16.535-3.605v-9.166c2.871 2.03 9.853 3.081 16.524 3.081 6.717 0 13.697-1.056 16.548-3.094z"></path> <path fill="#404041" d="M38.99 111.916a40.314 40.314 0 0 1-16.866-3.725V98.11c2.106 2.027 8.796 3.453 16.855 3.453 8.12 0 14.8-1.433 16.879-3.473v10.101a40.314 40.314 0 0 1-16.867 3.725"></path> <path fill="#FFF" d="M56.188 96.932l-.01.002c-.443 2.393-7.975 4.298-17.199 4.298-9.15 0-16.632-1.874-17.186-4.24v11.41a40.364 40.364 0 0 0 34.395 0v-11.47zm-.661 1.866v9.181a40.007 40.007 0 0 1-16.537 3.606 39.994 39.994 0 0 1-16.535-3.606v-9.167c2.871 2.03 9.853 3.081 16.524 3.081 6.717 0 13.697-1.056 16.548-3.095z"></path> <path fill="#404041" d="M38.99 102.874a40.314 40.314 0 0 1-16.866-3.725V89.068c2.106 2.027 8.796 3.453 16.855 3.453 8.12 0 14.8-1.433 16.879-3.475V99.15a40.314 40.314 0 0 1-16.867 3.725"></path> <path fill="#FFF" d="M56.188 87.89h-.01c-.443 2.395-7.975 4.3-17.199 4.3-9.15 0-16.632-1.875-17.186-4.24v11.41a40.383 40.383 0 0 0 34.396 0V87.89zm-.661 1.865v9.182a40.007 40.007 0 0 1-16.537 3.605 39.994 39.994 0 0 1-16.535-3.605v-9.168c2.871 2.03 9.853 3.082 16.524 3.082 6.717 0 13.697-1.056 16.548-3.096z"></path> <path fill="#404041" d="M38.99 92.484c-10.17 0-17.002-2.224-17.002-4.302 0-2.077 6.833-4.3 17.003-4.3 10.168 0 17 2.223 17 4.3 0 2.078-6.832 4.302-17 4.302"></path> <path fill="#FFF" d="M38.99 83.662c-9.51 0-17.222 2.024-17.222 4.52 0 2.496 7.712 4.522 17.223 4.522 9.51 0 17.219-2.026 17.219-4.521 0-2.497-7.709-4.52-17.22-4.52m0 .441c9.89 0 16.78 2.148 16.78 4.079 0 1.929-6.89 4.08-16.78 4.08s-16.781-2.151-16.781-4.08c0-1.93 6.892-4.079 16.782-4.079"></path> <path fill="#FFF" d="M50.75 88.182c0 1.345-5.264 2.435-11.76 2.435-6.494 0-11.76-1.09-11.76-2.435 0-1.344 5.266-2.436 11.76-2.436 6.496 0 11.76 1.092 11.76 2.436"></path> <path stroke="#404041" stroke-width="1.448" d="M243.968 64.823h-52.971V9.456"></path> <path fill="#404041" d="M245.58 41.64l-4.426 3.23-9.619-13.184 4.423-3.23z"></path> <path fill="#404041" d="M223.553 16.102c-4.371 3.191-5.332 9.346-2.14 13.721 3.19 4.37 9.343 5.333 13.713 2.142 4.373-3.195 5.334-9.35 2.142-13.721-3.191-4.374-9.343-5.335-13.715-2.142m1.824 2.499a6.721 6.721 0 0 1 9.394 1.467 6.73 6.73 0 0 1-1.468 9.396 6.718 6.718 0 0 1-9.391-1.467c-2.188-3-1.535-7.209 1.465-9.396M514.045 272.344v30.765H483.52c.12 16.763 13.736 30.322 30.525 30.322 16.86 0 30.528-13.677 30.528-30.547 0-16.864-13.668-30.54-30.527-30.54"></path> <path fill="#BE202E" d="M481.866 299.788c.348-15.832 13.15-28.734 28.968-29.2v29.2h-28.968z"></path> <path fill="#BE202E" d="M511.5 269.91c-16.757.122-30.306 13.746-30.306 30.54h30.305v-30.54zm-1.328 1.37v27.845h-27.62c.676-14.941 12.694-27.058 27.62-27.845z"></path> <mask id="b" fill="#fff"> <use xlink:href="#a"></use> </mask> <path fill="#404041" d="M332.648 56.554h54.025V19.057h-54.025z" mask="url(#b)"></path> <path fill="#FFF" d="M335.365 53.963h48.595V21.647h-48.595z" mask="url(#b)"></path> <path fill="#404041" d="M392.894 60.982h-66.462l6.792-3.751h52.878zM326.439 63.406h66.445v-1.868H326.44z" mask="url(#b)"></path> <path fill="#404041" d="M374.416 28.884a7.127 7.127 0 0 0-3.898 1.161 7.11 7.11 0 0 0-3.097 4.521 7.105 7.105 0 0 0 1.005 5.388 7.135 7.135 0 0 0 6.004 3.256 7.128 7.128 0 0 0 3.901-1.165 7.102 7.102 0 0 0 3.097-4.519 7.127 7.127 0 0 0-1.003-5.388 7.146 7.146 0 0 0-6.009-3.254zm3.033 18.028c-.982.273-1.995.41-3.018.41a11.244 11.244 0 0 1-9.461-5.118 11.208 11.208 0 0 1-1.578-8.491 11.217 11.217 0 0 1 4.877-7.124 11.206 11.206 0 0 1 6.138-1.826c3.842 0 7.383 1.916 9.473 5.127 2.669 4.103 2.353 9.542-.748 13.321l8.79 13.508-5.682 3.702-8.79-13.51z" mask="url(#b)"></path> <path fill="#FFF" d="M374.43 42.872a6.806 6.806 0 0 1-5.722-3.103 6.768 6.768 0 0 1-.958-5.133 6.77 6.77 0 0 1 2.953-4.308 6.775 6.775 0 0 1 3.713-1.107 6.81 6.81 0 0 1 5.727 3.102 6.787 6.787 0 0 1 .956 5.134 6.763 6.763 0 0 1-2.953 4.305 6.772 6.772 0 0 1-3.717 1.11m-.023-18.446c-2.248 0-4.433.65-6.32 1.881a11.53 11.53 0 0 0-5.023 7.335 11.539 11.539 0 0 0 1.623 8.745 11.582 11.582 0 0 0 9.745 5.273c.972 0 1.934-.12 2.869-.36l8.473 13.021.368.567.565-.37 5.117-3.332.567-.369-.369-.564-8.474-13.02c3.047-3.881 3.319-9.371.614-13.527a11.59 11.59 0 0 0-9.755-5.28m.023 19.12a7.46 7.46 0 0 0 4.085-1.218c3.47-2.256 4.45-6.903 2.193-10.374a7.492 7.492 0 0 0-10.373-2.192 7.5 7.5 0 0 0 4.095 13.785m-.023-18.447c3.583 0 7.095 1.754 9.192 4.975 2.712 4.168 2.206 9.513-.884 13.11l8.741 13.434-5.118 3.336-8.74-13.437c-1.04.315-2.106.469-3.166.469-3.578 0-7.085-1.75-9.178-4.968-3.293-5.058-1.856-11.856 3.2-15.147a10.866 10.866 0 0 1 5.953-1.772" mask="url(#b)"></path> <path fill="#404041" d="M153.688 329.04H406.08a5.428 5.428 0 0 1 2.152-.299 60.42 60.42 0 0 0 4.074.151c30.883 0 56.007-23.139 56.007-51.58 0-27.951-24.677-51.084-55.009-51.568a5.332 5.332 0 0 1-4.54-2.672 5.342 5.342 0 0 1-.034-5.27c4.096-7.336 6.175-15.251 6.175-23.523 0-28.448-25.127-51.59-56.01-51.59-8.688 0-17.014 1.787-24.747 5.31a5.342 5.342 0 0 1-5.052-.34 5.343 5.343 0 0 1-2.494-4.41c-.709-34.315-31.556-62.234-68.765-62.234-37.934 0-68.793 28.465-68.793 63.456 0 3.28.293 6.654.874 10.027a5.336 5.336 0 0 1-7.062 5.93c-6.486-2.328-13.312-3.509-20.291-3.509-30.883 0-56.009 23.148-56.009 51.598 0 7.244 1.615 14.275 4.805 20.896a5.343 5.343 0 0 1-1.114 6.171C99.486 245.906 93.56 259.46 93.56 273.746c0 29.926 26.415 54.655 58.885 55.13.427.006.844.062 1.242.163m254.186 10.678H152.367c-.5 0-.984-.07-1.442-.199-37.642-1.23-68.036-30.469-68.036-65.772 0-16 6.119-31.193 17.314-43.177a58.158 58.158 0 0 1-4.32-22.052c0-34.338 29.913-62.276 66.682-62.276 5.396 0 10.717.602 15.902 1.792a66.748 66.748 0 0 1-.097-3.562c0-40.877 35.65-74.133 79.467-74.133 40.263 0 74.086 28.626 78.871 65.204 7.088-2.343 14.522-3.53 22.186-3.53 36.769 0 66.683 27.933 66.683 62.267 0 7.402-1.356 14.564-4.042 21.379 32.335 4.24 57.45 30.458 57.45 61.654 0 34.329-29.912 62.259-66.68 62.259-.93 0-1.9-.023-2.924-.069-.478.14-.985.215-1.507.215" mask="url(#b)"></path> <path fill="#5CCBEF" d="M277.737 328.552c0 23.07-18.694 41.772-41.754 41.772s-41.753-18.702-41.753-41.772c0-23.07 18.692-41.772 41.753-41.772 23.06 0 41.754 18.701 41.754 41.772" mask="url(#b)"></path> <path fill="#FFF" d="M210.828 319.175h14.836v-7.267h-14.836v7.267zm-.926.928h16.689v-9.123H209.9v9.123zM210.828 334.325h14.836v-7.264h-14.836v7.264zm-.926.927h16.689v-9.12H209.9v9.12zM210.828 349.476h14.836v-7.265h-14.836v7.265zm-.926.928h16.689v-9.121H209.9v9.121z" mask="url(#b)"></path> <path fill="#FFF" d="M216.762 323.186l.741 1.288.743 1.285.743-1.285.743-1.288h-.772v-3.547h-1.428v3.547zM216.762 338.45l.741 1.29.743 1.286.743-1.286.743-1.29h-.772v-3.544h-1.428v3.545zM247.347 316.022h-1.159v-10.399h-27.122v5.916h-1.159v-7.073h29.44zM246.688 350.675a38.02 38.02 0 0 1-15.913-3.514v-9.51c1.988 1.916 8.299 3.257 15.903 3.257 7.656 0 13.96-1.347 15.923-3.273v9.526a38.03 38.03 0 0 1-15.913 3.514" mask="url(#b)"></path> <path fill="#5CCBEF" d="M262.913 336.54c-.002.002-.005.002-.009.002-.42 2.26-7.525 4.057-16.227 4.057-8.633 0-15.692-1.771-16.214-4.002v10.761a38.04 38.04 0 0 0 16.224 3.63 38.047 38.047 0 0 0 16.226-3.63V336.54zm-.626 1.764v8.658a37.689 37.689 0 0 1-15.6 3.404 37.687 37.687 0 0 1-15.599-3.404v-8.647c2.707 1.914 9.296 2.906 15.59 2.906 6.335 0 12.919-.995 15.61-2.917z" mask="url(#b)"></path> <path fill="#FFF" d="M246.688 341.382a38.02 38.02 0 0 1-15.913-3.516v-9.511c1.988 1.916 8.299 3.258 15.903 3.258 7.656 0 13.96-1.349 15.923-3.273v9.526a38.032 38.032 0 0 1-15.913 3.516" mask="url(#b)"></path> <path fill="#5CCBEF" d="M262.913 327.245l-.009.005c-.42 2.257-7.525 4.054-16.227 4.054-8.633 0-15.692-1.77-16.214-4v10.761a38.065 38.065 0 0 0 32.45 0v-10.82zm-.626 1.76v8.662a37.713 37.713 0 0 1-15.6 3.403 37.711 37.711 0 0 1-15.599-3.403v-8.647c2.707 1.913 9.296 2.907 15.59 2.907 6.335 0 12.919-.996 15.61-2.921z" mask="url(#b)"></path> <path fill="#FFF" d="M246.688 332.85a38.02 38.02 0 0 1-15.913-3.516v-9.51c1.988 1.911 8.299 3.259 15.903 3.259 7.656 0 13.96-1.353 15.923-3.275v9.526a38.032 38.032 0 0 1-15.913 3.516" mask="url(#b)"></path> <path fill="#5CCBEF" d="M262.913 318.713a.013.013 0 0 1-.009.003c-.42 2.258-7.525 4.055-16.227 4.055-8.633 0-15.692-1.77-16.214-4v10.763a38.063 38.063 0 0 0 16.224 3.629 38.07 38.07 0 0 0 16.226-3.629v-10.82zm-.626 1.762v8.662a37.736 37.736 0 0 1-15.6 3.399 37.734 37.734 0 0 1-15.599-3.4v-8.646c2.707 1.912 9.296 2.904 15.59 2.904 6.335 0 12.919-.995 15.61-2.92z" mask="url(#b)"></path> <path fill="#FFF" d="M246.688 323.048c-9.596 0-16.04-2.097-16.04-4.059 0-1.958 6.444-4.056 16.04-4.056 9.594 0 16.039 2.098 16.039 4.056 0 1.962-6.445 4.059-16.04 4.059" mask="url(#b)"></path> <path fill="#5CCBEF" d="M246.688 314.724c-8.976 0-16.249 1.912-16.249 4.265 0 2.356 7.273 4.267 16.249 4.267 8.972 0 16.248-1.91 16.248-4.267 0-2.353-7.276-4.265-16.248-4.265m0 .416c9.328 0 15.832 2.028 15.832 3.849 0 1.822-6.504 3.851-15.832 3.851-9.33 0-15.833-2.029-15.833-3.851 0-1.82 6.502-3.85 15.833-3.85" mask="url(#b)"></path> <path fill="#5CCBEF" d="M257.784 318.99c0 1.269-4.968 2.3-11.097 2.3-6.127 0-11.096-1.031-11.096-2.3 0-1.27 4.969-2.296 11.096-2.296 6.13 0 11.097 1.027 11.097 2.296" mask="url(#b)"></path> <path fill="#253D80" d="M462.624 166.363c-22.638 22.65-59.341 22.65-81.98 0-22.639-22.648-22.639-59.37 0-82.017 22.639-22.646 59.342-22.646 81.98 0 22.638 22.648 22.638 59.369 0 82.017" mask="url(#b)"></path> <path fill="#FFF" d="M394.925 164.866h38.756V84.403h-38.756z" mask="url(#b)"></path> <path fill="#253D80" d="M398.207 95.401h32.192v-4.07h-32.192zM398.207 103.22h32.192v-4.072h-32.192zM398.207 111.037h32.192v-4.073h-32.192zM398.207 118.853h32.192v-4.072h-32.192zM398.207 126.672h32.192V122.6h-32.192zM398.207 134.488h32.192v-4.072h-32.192zM398.207 142.307h32.192v-4.074h-32.192zM398.207 150.122h32.192v-4.072h-32.192zM398.207 157.938h32.192v-4.07h-32.192z" mask="url(#b)"></path> <path fill="#FFF" d="M437.89 119.84a3.982 3.982 0 0 0-2.83 1.17 3.937 3.937 0 0 0-1.171 2.816c.002 2.196 1.795 3.984 4.001 3.984 1.07 0 2.077-.416 2.832-1.173a3.936 3.936 0 0 0 1.172-2.816c-.002-2.194-1.796-3.98-4-3.98v-.56l-.004.56zm0 20.543c-9.16-.002-16.613-7.426-16.618-16.55-.008-9.129 7.443-16.562 16.607-16.57 9.172 0 16.628 7.425 16.633 16.548.003 4.418-1.723 8.577-4.864 11.709a16.538 16.538 0 0 1-11.746 4.863h-.012z" mask="url(#b)"></path> <path fill="#253D80" d="M437.89 128.368v-1.117c-1.896 0-3.443-1.536-3.443-3.425 0-.914.355-1.772 1.007-2.422a3.441 3.441 0 0 1 2.435-1.007c1.902 0 3.445 1.534 3.448 3.424a3.39 3.39 0 0 1-1.008 2.422 3.421 3.421 0 0 1-2.435 1.008l-.004 1.117zm0-21.66h-.011c-9.473.006-17.172 7.69-17.165 17.124.005 9.435 7.712 17.11 17.176 17.11a17.102 17.102 0 0 0 12.15-5.028c3.248-3.237 5.034-7.536 5.03-12.103-.005-9.433-7.713-17.104-17.18-17.104zm0 21.66h.004c2.514-.002 4.561-2.039 4.558-4.547-.002-2.505-2.048-4.54-4.558-4.54h-.005c-2.516.001-4.561 2.04-4.557 4.545 0 2.507 2.045 4.542 4.558 4.542zm0-20.546c8.855 0 16.06 7.17 16.064 15.99.007 8.824-7.193 16.008-16.052 16.012h-.012c-8.852 0-16.057-7.17-16.06-15.993-.006-8.819 7.193-16.002 16.049-16.009h.011z" mask="url(#b)"></path> <path fill="#FFF" d="M437.881 107.245c-9.177.007-16.64 7.449-16.635 16.588.007 9.135 7.473 16.567 16.645 16.567 9.188-.006 16.65-7.448 16.646-16.59-.007-9.133-7.473-16.565-16.645-16.565v-.558l-.011.558zm-1.894 38.034c-.93-.11-1.826-.356-2.698-.597l-.297-.08-1.563 3.422-2.484-.767.718-3.75a20.29 20.29 0 0 1-1.862-.887l-2.439 2.89-2.19-1.398 1.696-3.393c-.565-.433-1.11-.9-1.625-1.393l-3.034 2.2-1.788-1.877 2.501-2.928a22.033 22.033 0 0 1-1.342-2.004l-3.653 1.292-1.175-2.31 3.306-2.136c-.173-.45-.327-.897-.463-1.332l-3.897.358-.6-2.52 3.634-1.243-.04-.212a13.347 13.347 0 0 1-.146-.801l-4.224-.467-.002-2.592 4.244-.476c.049-.262.123-.517.195-.763.027-.103.058-.203.083-.305l-3.682-1.24.546-2.522 3.935.357c.139-.442.293-.881.456-1.312l-3.352-2.163 1.167-2.31 3.724 1.315c.406-.68.85-1.343 1.327-1.97l-2.561-2.995 1.784-1.886 3.126 2.264a20.63 20.63 0 0 1 1.589-1.354l-1.756-3.499 2.19-1.398 2.526 2.993c.57-.304 1.164-.584 1.802-.851l-.75-3.88 2.49-.733 1.634 3.617c.99-.211 2.006-.306 3.045-.375l.462-3.674 2.58-.003.464 3.67.21.012c1.001.05 2.03.1 3.039.313l1.64-3.632 2.471.778-.756 3.96c.587.253 1.172.535 1.741.842l2.557-3.061 2.168 1.404-1.77 3.585c.535.415 1.05.858 1.538 1.32l3.168-2.324 1.77 1.89-2.595 3.068c.469.619.9 1.262 1.292 1.922l3.772-1.35 1.16 2.311-3.386 2.212c.157.413.305.838.44 1.272l3.971-.368.537 2.526-3.77 1.278c.043.361.07.725.094 1.082l3.802.453v2.58l-3.792.458v.024c-.015.318-.03.634-.057.948l3.747 1.268-.543 2.526-3.938-.359c-.132.428-.278.862-.442 1.292l3.349 2.178-1.154 2.315-3.704-1.318c-.392.668-.83 1.328-1.304 1.96l2.543 2.995-1.769 1.886-3.09-2.255a20.62 20.62 0 0 1-1.564 1.366l1.723 3.473-2.167 1.408-2.478-2.947c-.6.33-1.201.627-1.797.885l.732 3.822-2.462.817-1.584-3.422c-1.054.273-2.226.542-3.43.655l-.454 4.056-2.597.003-.462-4.089z" mask="url(#b)"></path> <path fill="#253D80" d="M437.89 140.96v-1.119c-8.864 0-16.08-7.181-16.086-16.01-.003-8.83 7.208-16.021 16.077-16.026 8.875 0 16.091 7.18 16.098 16.005.003 8.835-7.208 16.027-16.077 16.031l-.012 1.119zm1.725-41.925h-2.579l-.985.002-.123.976-.344 2.73c-.75.055-1.49.134-2.222.265l-1.25-2.77-.4-.885-.933.275-1.537.452-.972.288.19.994.568 2.94c-.353.156-.695.318-1.028.487l-1.924-2.278-.63-.746-.822.525-1.355.863-.848.542.45.9 1.326 2.644c-.318.253-.625.519-.928.79l-2.36-1.707-.792-.577-.673.713-1.103 1.165-.69.729.652.763 1.948 2.273c-.3.414-.586.836-.856 1.269l-2.835-1-.925-.328-.44.876-.722 1.426-.451.895.844.544 2.55 1.649-.17.49-2.997-.274-.983-.09-.21.966-.335 1.555-.213.976.946.318 2.708.91c-.02.062-.037.13-.055.195l-3.354.378-.991.113v1l.001 1.589v1.002l.994.108 3.307.365c.01.046.018.092.026.138l-2.693.918-.96.326.236.99.368 1.555.225.941.965-.087 2.97-.273.178.51-2.506 1.618-.846.546.456.897.725 1.426.444.873.923-.326 2.764-.978c.275.444.566.88.87 1.302l-1.885 2.206-.654.766.692.727 1.105 1.164.673.707.792-.573 2.265-1.647c.316.287.638.565.969.832l-1.267 2.533-.45.899.846.54 1.355.866.823.53.63-.75 1.835-2.172c.363.185.727.359 1.093.522l-.54 2.815-.186.982.954.297 1.538.473.936.29.406-.89 1.162-2.545c.707.193 1.427.384 2.179.504l.358 3.162.113.994h.998l1.6-.004h.996l.11-.994.35-3.115a22.677 22.677 0 0 0 2.614-.506l1.18 2.55.417.906.946-.316 1.525-.504.928-.31-.183-.96-.556-2.91c.34-.158.685-.326 1.03-.506l1.868 2.223.635.755.828-.537 1.337-.871.83-.542-.44-.89-1.301-2.626c.31-.255.614-.522.911-.795l2.316 1.693.796.58.676-.72 1.09-1.162.682-.729-.645-.76-1.936-2.277c.296-.41.576-.832.838-1.257l2.808 1.002.93.33.442-.885.71-1.428.444-.89-.833-.544-2.56-1.664c.056-.159.11-.313.162-.472l2.998.276.984.093.208-.97.335-1.553.21-.976-.941-.318-2.87-.97.006-.086 2.833-.342.98-.116v-3.573l-.982-.118-2.853-.339c-.004-.064-.01-.13-.016-.195l2.879-.979.94-.32-.207-.968-.33-1.554-.207-.971-.99.091-3.03.28c-.052-.15-.102-.3-.156-.45l2.597-1.696.833-.545-.447-.891-.713-1.423-.444-.884-.93.334-2.878 1.031a20.983 20.983 0 0 0-.822-1.223l1.989-2.353.641-.758-.68-.725-1.092-1.166-.676-.72-.797.584-2.4 1.76a20.522 20.522 0 0 0-.879-.756l1.35-2.734.443-.891-.837-.54-1.335-.867-.828-.537-.635.76-1.95 2.337a21.11 21.11 0 0 0-.97-.472l.578-3.036.186-.975-.947-.297-1.526-.481-.942-.297-.41.903-1.257 2.777c-.813-.136-1.626-.185-2.425-.226l-.344-2.717-.123-.976zm-1.725 41.925h.012c9.49-.007 17.198-7.702 17.193-17.15-.005-9.442-7.72-17.123-17.203-17.123h-.013c-9.486.006-17.196 7.699-17.191 17.146.006 9.446 7.72 17.127 17.202 17.127zm.74-40.81l.462 3.645c1.397.08 2.758.092 4.064.437l1.625-3.595 1.527.48-.748 3.918c.866.347 1.703.754 2.505 1.211l2.537-3.035 1.336.866-1.755 3.551c.776.573 1.51 1.204 2.193 1.883l3.15-2.31 1.09 1.166-2.562 3.03c.65.826 1.239 1.7 1.758 2.623l3.744-1.339.715 1.425-3.353 2.189c.28.68.52 1.375.727 2.087l3.93-.365.331 1.554-3.734 1.267c.101.644.139 1.299.18 1.962l3.77.45v1.59l-3.767.455c-.036.624-.04 1.245-.13 1.852l3.704 1.254-.335 1.556-3.9-.357c-.205.72-.445 1.424-.72 2.112l3.31 2.153-.713 1.428-3.676-1.312c-.52.94-1.111 1.824-1.767 2.664l2.51 2.96-1.091 1.16-3.072-2.243a20.743 20.743 0 0 1-2.215 1.933l1.706 3.439-1.338.87-2.458-2.923c-.82.468-1.672.894-2.558 1.256l.724 3.787-1.524.507-1.571-3.396c-1.364.362-2.786.708-4.244.791l-.45 4.02-1.6.003-.456-4.044c-1.308-.084-2.58-.503-3.812-.825l-1.554 3.405-1.537-.473.708-3.708a21.012 21.012 0 0 1-2.628-1.251l-2.419 2.863-1.353-.864 1.679-3.355a20.835 20.835 0 0 1-2.282-1.957l-3.018 2.19-1.104-1.161 2.47-2.889a20.916 20.916 0 0 1-1.808-2.705l-3.631 1.284-.724-1.424 3.267-2.114a20.528 20.528 0 0 1-.745-2.148l-3.873.357-.369-1.558 3.607-1.23c-.093-.623-.273-1.255-.31-1.897l-4.176-.46v-1.59l4.177-.473c.041-.653.342-1.303.44-1.94l-3.685-1.24.335-1.554 3.895.357c.213-.732.459-1.439.743-2.13l-3.314-2.142.719-1.426 3.697 1.305c.53-.935 1.13-1.827 1.797-2.665l-2.532-2.957 1.105-1.166 3.104 2.251c.7-.69 1.45-1.328 2.248-1.914l-1.739-3.466 1.356-.865 2.504 2.969c.824-.465 1.68-.865 2.567-1.217l-.74-3.83 1.54-.453 1.621 3.59c1.242-.317 2.535-.412 3.86-.49l.46-3.649h1.593z" mask="url(#b)"></path> <path fill="#F05A28" d="M304.537 56.91c-12.974 12.979-34.008 12.979-46.982 0-12.973-12.981-12.973-34.025 0-47.004 12.974-12.98 34.008-12.98 46.982 0 12.975 12.98 12.975 34.023 0 47.004" mask="url(#b)"></path> <path fill="#FFF" d="M296.665 29.33c.516-.899.81-1.915.81-2.996 0-3.607-3.247-6.531-7.253-6.531-1.143 0-2.223.239-3.187.663-.09-4.287-3.975-7.738-8.758-7.738-4.839 0-8.762 3.533-8.762 7.892 0 .425.04.845.111 1.252a7.946 7.946 0 0 0-2.61-.437c-4.005 0-7.254 2.924-7.254 6.53 0 .951.228 1.85.632 2.664-1.34 1.25-2.167 2.949-2.167 4.82 0 3.797 3.385 6.879 7.583 6.94v.017h30.204v-.034c.173.011.345.02.522.02 4.005 0 7.252-2.926 7.252-6.534 0-3.566-3.179-6.465-7.123-6.528" mask="url(#b)"></path> <path fill="#FFF" d="M293.684 52.536h-3.625V33.58h1.012v17.946h2.613z" mask="url(#b)"></path> <path fill="#FFF" d="M297.258 52.03l-5.036 2.058 1.195-2.059-1.195-2.058zM271.617 52.536h-3.624v-1.011h2.612V33.579h1.012z" mask="url(#b)"></path> <path fill="#FFF" d="M264.42 52.03l5.034-2.059-1.193 2.058 1.193 2.059zM280.444 50.988h1.013V33.523h-1.013z" mask="url(#b)"></path> <path fill="#FFF" d="M280.95 54.562l-2.056-5.038 2.057 1.195 2.057-1.195z" mask="url(#b)"></path> <path fill="#F05A28" d="M416.935 428c-32.015 0-57.97-25.963-57.97-57.995 0-32.028 25.955-57.995 57.97-57.995 32.018 0 57.97 25.967 57.97 57.995 0 32.032-25.952 57.995-57.97 57.995" mask="url(#b)"></path> <path fill="#FFF" d="M451.388 379.294l-67.708.013-.001-1.526 67.709-.012z" mask="url(#b)"></path> <path fill="#FFF" d="M416.774 385.442l-.003-16.272h1.524l.003 16.272zM383.687 385.38l-.004-7.606h1.527v7.607zM449.865 385.371l-.002-7.607h1.525v7.607z" mask="url(#b)"></path> <path fill="#FFF" d="M419.948 379.876h-4.828v-2.763h4.827z" mask="url(#b)"></path> <path fill="#F05A28" d="M432.11 357.346c.48-.838.75-1.786.75-2.79 0-3.358-3.024-6.084-6.752-6.081a7.321 7.321 0 0 0-2.967.617c-.084-3.992-3.702-7.204-8.157-7.203-4.506.002-8.157 3.291-8.156 7.349 0 .398.035.787.104 1.169a7.407 7.407 0 0 0-2.43-.41c-3.73.002-6.754 2.725-6.754 6.085 0 .88.211 1.72.588 2.479-1.246 1.16-2.015 2.744-2.015 4.488 0 3.533 3.152 6.402 7.059 6.46v.016l28.124-.005v-.033c.162.01.32.018.486.018 3.728-.002 6.753-2.726 6.751-6.083-.001-3.322-2.96-6.022-6.631-6.076" mask="url(#b)"></path> <path fill="#FFF" d="M404.5 350.702c-1.63 0-3.158.57-4.304 1.602-1.124 1.013-1.743 2.352-1.743 3.777 0 .75.172 1.48.513 2.165.139.28.077.617-.15.828-1.156 1.077-1.791 2.49-1.791 3.976 0 3.122 2.854 5.702 6.365 5.752a.941.941 0 0 1 .153.02l27.766-.006a.647.647 0 0 1 .244-.032c1.735.116 3.49-.459 4.741-1.585 1.124-1.014 1.743-2.355 1.743-3.776-.002-2.913-2.666-5.323-5.94-5.374a.703.703 0 0 1-.597-1.053 4.858 4.858 0 0 0 .657-2.44c0-2.965-2.714-5.378-6.048-5.378-.946 0-1.85.188-2.684.557a.705.705 0 0 1-.989-.629c-.075-3.593-3.417-6.515-7.45-6.515-2.006.001-3.89.702-5.299 1.974-1.39 1.253-2.155 2.912-2.155 4.672 0 .345.03.699.092 1.044a.698.698 0 0 1-.236.66.716.716 0 0 1-.688.13 6.67 6.67 0 0 0-2.2-.369zm-1.12 19.527a.707.707 0 0 1-.177-.023c-4.198-.14-7.587-3.32-7.587-7.156 0-1.72.664-3.35 1.88-4.646a6.187 6.187 0 0 1-.452-2.323c0-1.826.786-3.54 2.211-4.824 1.405-1.267 3.267-1.963 5.246-1.963.548 0 1.095.054 1.627.162a4.907 4.907 0 0 1-.005-.22c0-2.162.933-4.194 2.623-5.718 1.67-1.505 3.886-2.332 6.237-2.332 4.436 0 8.169 3.03 8.776 6.928a8.03 8.03 0 0 1 2.349-.343c4.113 0 7.456 3.043 7.458 6.786a6.27 6.27 0 0 1-.393 2.17c3.542.518 6.272 3.344 6.273 6.696 0 1.825-.785 3.538-2.21 4.823-1.48 1.332-3.513 2.055-5.56 1.955a.669.669 0 0 1-.172.023l-28.124.005z" mask="url(#b)"></path> <path fill="#FFF" d="M427.968 341.459a.698.698 0 0 1-.6-.333c-2.82-4.57-7.7-7.3-13.062-7.3h-.005a15.29 15.29 0 0 0-12.95 7.122.7.7 0 0 1-.97.216.7.7 0 0 1-.217-.97c3.094-4.867 8.38-7.774 14.137-7.774h.003c5.854 0 11.183 2.979 14.262 7.968a.704.704 0 0 1-.598 1.07" mask="url(#b)"></path> <path fill="#FFF" d="M423.143 342.912a.699.699 0 0 1-.599-.336 9.598 9.598 0 0 0-8.22-4.59 9.615 9.615 0 0 0-8.148 4.48.704.704 0 0 1-1.188-.756 11.018 11.018 0 0 1 9.335-5.133 10.99 10.99 0 0 1 9.418 5.261.704.704 0 0 1-.598 1.074" mask="url(#b)"></path> <path fill="#FFF" d="M433.91 340.928a.704.704 0 0 1-.598-.336c-4.108-6.657-11.223-10.631-19.031-10.631h-.007c-7.682.003-14.736 3.877-18.865 10.374a.705.705 0 0 1-1.188-.755c4.39-6.903 11.888-11.027 20.053-11.029h.007c8.301 0 15.862 4.224 20.227 11.303a.704.704 0 0 1-.597 1.074" mask="url(#b)"></path> <path fill="#F05A28" d="M394.296 397.06l-19.098.003-.002-11.823 19.098-.004z" mask="url(#b)"></path> <path fill="#FFF" d="M375.901 385.944l.002 10.413 17.69-.003-.001-10.413-17.69.003zm-1.406 11.825l-.001-13.233 20.504-.004.001 13.233-20.504.004z" mask="url(#b)"></path> <path fill="#F05A28" d="M427.014 397.055l-19.098.002-.001-11.824 19.096-.003z" mask="url(#b)"></path> <path fill="#FFF" d="M408.618 385.939l.002 10.413 17.69-.003-.002-10.415-17.69.005zm-1.406 11.823v-13.23l20.504-.005.002 13.232-20.506.003z" mask="url(#b)"></path> <path fill="#F05A28" d="M459.907 397.049l-19.098.003-.003-11.823 19.1-.004z" mask="url(#b)"></path> <path fill="#FFF" d="M441.51 385.933l.002 10.415 17.69-.005v-10.414l-17.691.004zm-1.404 11.823l-.003-13.23 20.505-.005.002 13.232-20.504.003z" mask="url(#b)"></path> <path fill="#5CCBEF" d="M70.13 152.02c12.975 12.98 12.975 34.024 0 47.003-12.974 12.981-34.008 12.981-46.981 0-12.976-12.979-12.976-34.022 0-47.003 12.973-12.98 34.007-12.98 46.98 0" mask="url(#b)"></path> <path fill="#FFF" d="M26.323 169.946a2.402 2.402 0 0 0-2.4 2.402v6.882a2.403 2.403 0 0 0 2.4 2.402h12.641c1.322 0 2.4-1.078 2.4-2.402v-6.882a2.403 2.403 0 0 0-2.4-2.402H26.323zm12.641 14.566H26.323a5.289 5.289 0 0 1-5.282-5.282v-6.882a5.29 5.29 0 0 1 5.282-5.284h12.641c2.91 0 5.28 2.371 5.28 5.284v6.882a5.288 5.288 0 0 1-5.28 5.282zM53.203 169.946a2.403 2.403 0 0 0-2.4 2.402v6.882a2.404 2.404 0 0 0 2.4 2.402h12.641c1.322 0 2.4-1.078 2.4-2.402v-6.882a2.403 2.403 0 0 0-2.4-2.402H53.203zm12.641 14.566H53.203c-2.91 0-5.28-2.37-5.28-5.282v-6.882a5.289 5.289 0 0 1 5.28-5.284h12.641c2.912 0 5.28 2.371 5.28 5.284v6.882a5.287 5.287 0 0 1-5.28 5.282z" mask="url(#b)"></path> <path fill="#FFF" d="M55.669 175.789c0 1.26-1.02 2.28-2.278 2.28H38.775a2.28 2.28 0 0 1 0-4.561h14.616a2.279 2.279 0 0 1 2.278 2.28" mask="url(#b)"></path> <path fill="#F89521" d="M131.384 297.84c0 32.03-25.952 57.995-57.97 57.995-32.014 0-57.968-25.965-57.968-57.995s25.954-57.993 57.968-57.993c32.018 0 57.97 25.963 57.97 57.993" mask="url(#b)"></path> <path fill="#FFF" d="M73.183 261.072v37.611H35.864c.149 20.495 16.795 37.065 37.317 37.065 20.612 0 37.322-16.714 37.322-37.337 0-20.622-16.71-37.34-37.32-37.34" mask="url(#b)"></path> <path fill="#F89521" d="M33.843 294.62c.427-19.352 16.08-35.123 35.42-35.694v35.695l-35.42-.001z" mask="url(#b)"></path> <path fill="#FFF" d="M70.072 258.1c-20.485.147-37.05 16.8-37.05 37.33v.002l37.05.002V258.1zm-1.621 1.67v34.04l-33.77-.002c.827-18.263 15.521-33.073 33.77-34.037z" mask="url(#b)"></path> <path fill="#F36E32" d="M158.44 30.906c22.637 22.649 22.637 59.368 0 82.018-22.64 22.646-59.343 22.646-81.981 0-22.64-22.65-22.64-59.369 0-82.018 22.638-22.648 59.34-22.648 81.98 0" mask="url(#b)"></path> <path fill="#5CCBEF" d="M502.047 239.61c-18.348 0-33.222-14.882-33.222-33.238 0-18.355 14.874-33.237 33.222-33.237 18.347 0 33.22 14.882 33.22 33.237 0 18.356-14.873 33.238-33.22 33.238" mask="url(#b)"></path> <path fill="#FFF" d="M483.25 217.906h39.603V190.42H483.25z" mask="url(#b)"></path> <path fill="#5CCBEF" d="M485.238 216.009h35.625v-23.693h-35.625z" mask="url(#b)"></path> <path fill="#FFF" d="M527.413 221.153H478.69l4.98-2.749h38.762zM478.695 222.932h48.71v-1.368h-48.71zM512.015 206.764a.91.91 0 0 1-.774-.432 9.603 9.603 0 0 0-8.225-4.598h-.004a9.626 9.626 0 0 0-8.158 4.485.909.909 0 0 1-1.534-.974 11.437 11.437 0 0 1 9.69-5.33h.006c4.01 0 7.664 2.042 9.774 5.462a.908.908 0 0 1-.775 1.387" mask="url(#b)"></path> <path fill="#FFF" d="M508.838 207.72a.908.908 0 0 1-.776-.434 5.883 5.883 0 0 0-5.037-2.813 5.897 5.897 0 0 0-4.992 2.746.909.909 0 1 1-1.534-.976 7.702 7.702 0 0 1 6.526-3.587 7.685 7.685 0 0 1 6.586 3.677.912.912 0 0 1-.773 1.387" mask="url(#b)"></path> <path fill="#FFF" d="M515.931 206.412a.911.911 0 0 1-.774-.432c-2.623-4.254-7.17-6.792-12.158-6.792h-.004a14.223 14.223 0 0 0-12.057 6.628.907.907 0 0 1-1.254.279.906.906 0 0 1-.28-1.255 16.032 16.032 0 0 1 13.59-7.47H503c5.622 0 10.746 2.861 13.705 7.655a.911.911 0 0 1-.774 1.387" mask="url(#b)"></path> <path fill="#FFF" d="M506.163 208.908a3.104 3.104 0 1 1-6.208 0 3.104 3.104 0 0 1 6.208 0M123.96 90.221c-.14.23-.338.557-.579.946l-.384.636c-.16.21-.328.43-.501.66-.342.461-.694.964-1.131 1.398-.789.943-1.733 1.737-2.422 2.34l-1.228.918s-.113.108-.347.236l-.95.576c-.197.115-.403.259-.637.377-.236.115-.486.234-.747.355-.513.257-1.06.532-1.646.714-1.13.472-2.335.72-3.223.945l-1.513.23s-.15.029-.415.06l-1.11.05c-.46.027-.997.074-1.574.015-.57-.052-1.193-.013-1.795-.124-.604-.108-1.214-.174-1.776-.284l-1.515-.394c-.452-.092-.794-.275-1.051-.354l-.393-.144-.394-.14c-.26-.076-.6-.254-1.012-.454-.844-.362-1.898-.99-2.921-1.664l-1.439-1.082c-.425-.388-.823-.748-1.162-1.06-.356-.294-.574-.617-.766-.803l-.283-.313s-.104-.111-.286-.31c-.197-.185-.408-.506-.684-.874-.585-.714-1.228-1.758-1.82-2.83-.256-.554-.54-1.098-.771-1.622l-.537-1.47c-.18-.424-.22-.81-.303-1.066l-.104-.408-.107-.408c-.087-.253-.136-.632-.201-1.087-.052-.457-.185-.979-.213-1.555l-.092-1.8.092-1.806c.028-.574.16-1.098.213-1.554.065-.455.114-.833.201-1.087.069-.26.107-.41.107-.41l.104-.404c.082-.255.123-.643.303-1.069l.537-1.468c.23-.526.515-1.07.77-1.623.593-1.07 1.236-2.115 1.82-2.83.277-.368.488-.689.685-.874l.286-.31.283-.314c.192-.185.413-.509.766-.803l1.162-1.058c.46-.346.948-.716 1.439-1.082 1.023-.673 2.077-1.302 2.921-1.662.413-.202.752-.38 1.012-.456l.394-.14.393-.146c.257-.075.599-.26 1.05-.354l1.516-.391c.562-.113 1.172-.179 1.776-.283.602-.113 1.223-.074 1.795-.128.575-.057 1.113-.01 1.573.015.46.02.843.039 1.111.05a308.213 308.213 0 0 0 1.928.29c.888.225 2.092.475 3.223.947.586.181 1.133.456 1.645.712.262.121.509.24.748.355.234.12.44.262.636.378.395.238.72.438.951.575.234.13.347.238.347.238l1.228.918c.689.603 1.633 1.395 2.422 2.338.437.432.789.937 1.13 1.4.174.23.343.449.502.66l.384.635.58.947c.145.227.193.371.193.373 0 0 .267.55.664 1.375.324.858.799 1.991 1.053 3.19.07.298.17.59.217.887.044.297.089.593.128.875.09.568.19 1.095.185 1.558l.083 1.536-.083 1.531c.005.462-.095.99-.185 1.557-.04.287-.084.58-.128.876-.047.298-.147.59-.217.886-.254 1.202-.729 2.333-1.051 3.19l-.666 1.375s-.048.15-.193.375m8.03-7.085c-.495-.123-.988-.245-1.453-.353.015-.17.038-.35.038-.51.057-1.107.097-1.842.097-1.842s-.04-.74-.097-1.848c0-.16-.023-.338-.04-.51.467-.108.96-.227 1.456-.353 1.882-.47 3.748-1.032 3.748-1.032s-.066-.424-.16-1.064c-.052-.318-.109-.693-.173-1.09-.078-.395-.196-.81-.3-1.23-.228-.83-.397-1.677-.646-2.278l-.37-1.013s-1.918.372-3.806.83c-.495.115-.982.239-1.437.355l-.185-.475c-.483-1-.802-1.665-.802-1.665s-.066-.173-.236-.448c-.168-.275-.41-.672-.695-1.145-.084-.133-.179-.29-.269-.437.359-.311.738-.645 1.118-.986 1.461-1.305 2.84-2.667 2.84-2.667l-.642-.865c-.381-.52-.897-1.206-1.494-1.828-1.113-1.315-2.424-2.435-2.423-2.435 0 0-1.53 1.22-2.99 2.5-.381.334-.76.67-1.106.987-.133-.113-.268-.23-.388-.335a1386.17 1386.17 0 0 1-1.478-1.107s-.139-.123-.42-.283c-.275-.17-.671-.41-1.144-.7a8.452 8.452 0 0 1-.44-.257c.171-.443.354-.918.533-1.398.686-1.822 1.28-3.674 1.28-3.674l-.97-.468-.993-.477c-.368-.165-.78-.3-1.183-.45a23.079 23.079 0 0 0-3.285-1.032s-.784 1.793-1.478 3.607a82.12 82.12 0 0 0-.523 1.386l-.495-.12-1.828-.28s-.181-.033-.5-.07c-.324-.017-.788-.038-1.34-.066-.158-.01-.338-.016-.511-.024a93.384 93.384 0 0 0-.553-4.15l-.199-1.206-1.073.052c-.644.053-1.506.03-2.354.177-.85.13-1.7.26-2.34.36-.627.153-1.044.257-1.044.257a95.967 95.967 0 0 0 .54 5.356c-.166.048-.34.092-.495.131-.541.121-.962.33-1.268.426-.304.111-.478.178-.478.178s-.173.06-.478.169c-.31.097-.721.308-1.22.547-.146.062-.307.147-.464.22-.263-.389-.546-.803-.838-1.219-1.118-1.605-2.317-3.167-2.317-3.167l-.262.135c-.16.098-.393.237-.67.4-.545.345-1.302.762-2.003 1.258l-1.895 1.418c-.498.408-.805.708-.805.708a97.297 97.297 0 0 0 2.974 4.493l-.38.345c-.422.36-.696.738-.925.968l-.342.373-.342.378c-.232.226-.493.608-.828 1.05-.098.124-.205.272-.308.41-.414-.224-.859-.461-1.31-.694a97.283 97.283 0 0 0-3.518-1.732s-.074.082-.167.244l-.407.665c-.326.557-.814 1.27-1.193 2.043l-1.027 2.135c-.247.596-.386 1.006-.386 1.006s1.688 1 3.41 1.91c.444.241.893.474 1.31.687l-.177.48c-.209.515-.271.978-.37 1.288-.078.313-.125.491-.125.491s-.045.18-.126.491c-.099.311-.166.767-.246 1.317-.02.157-.05.337-.08.506a96.46 96.46 0 0 0-5.398.11s-.075.425-.093 1.069c-.033.645-.074 1.503-.116 2.362.042.857.083 1.713.116 2.358a7.88 7.88 0 0 0 .095 1.07 94.738 94.738 0 0 0 5.396.109c.03.167.06.35.08.506.08.547.147 1.005.246 1.316.081.311.126.492.126.492l.127.492c.097.307.159.77.368 1.284l.177.483c-.417.213-.864.445-1.31.685-1.722.913-3.41 1.915-3.41 1.915s.14.405.386 1.002l1.027 2.137c.38.77.867 1.483 1.193 2.04.168.279.307.506.407.667.093.162.167.245.167.245s1.786-.83 3.519-1.734c.45-.234.895-.47 1.31-.694.102.14.209.288.307.411.335.442.596.824.828 1.05.218.24.342.374.342.374s.124.14.342.379c.23.227.503.607.925.966l.38.344c-.272.386-.557.797-.842 1.216-1.1 1.606-2.132 3.276-2.132 3.276 0 .002.31.3.807.71.515.386 1.204.9 1.893 1.417.7.496 1.46.914 2.005 1.256l.668.403.263.134s1.198-1.562 2.316-3.17c.292-.412.576-.828.84-1.218.155.075.317.159.461.221.5.243.91.452 1.223.545l.476.176s.174.062.478.175c.306.095.727.303 1.268.426l.495.127c-.06.467-.123.965-.179 1.467-.226 1.937-.361 3.894-.361 3.894s.417.103 1.045.254c.639.1 1.488.23 2.34.362.849.145 1.711.124 2.353.178.646.028 1.073.05 1.073.05l.198-1.206a98.835 98.835 0 0 0 .554-4.149c.173-.01.353-.016.51-.025.553-.027 1.017-.052 1.34-.067.32-.037.503-.07.503-.07s.73-.113 1.826-.28c.153-.038.328-.077.495-.12a90.536 90.536 0 0 0 2.005 4.992c-.004 0 1.684-.374 3.281-1.028.403-.155.815-.286 1.183-.453l.994-.475.969-.468s-.594-1.854-1.28-3.676c-.175-.48-.36-.953-.534-1.397.144-.088.301-.18.44-.26.474-.29.87-.527 1.145-.696.281-.159.42-.285.42-.285l1.478-1.107.388-.334c.347.316.725.652 1.106.984a93.883 93.883 0 0 0 2.99 2.502s1.31-1.118 2.423-2.433c.599-.62 1.113-1.31 1.494-1.832l.645-.86s-1.382-1.362-2.843-2.667c-.378-.344-.76-.678-1.118-.987l.269-.437c.286-.475.527-.87.695-1.147.17-.273.236-.448.236-.448s.319-.665.802-1.665l.185-.475c.455.118.942.239 1.437.357 1.888.457 3.81.827 3.806.827 0 0 .148-.405.372-1.01.249-.6.419-1.45.646-2.28.102-.417.22-.835.298-1.23.064-.399.121-.77.174-1.088.093-.64.159-1.065.159-1.065s-1.866-.561-3.748-1.033" mask="url(#b)"></path> <path fill="#FFF" d="M106.078 87.07a6.64 6.64 0 0 1-6.64-6.643 6.639 6.639 0 0 1 6.64-6.64 6.639 6.639 0 0 1 6.64 6.64 6.64 6.64 0 0 1-6.64 6.642m0-23.14c-9.11 0-16.493 7.386-16.493 16.498 0 9.113 7.383 16.501 16.493 16.501 9.108 0 16.492-7.388 16.492-16.501 0-9.112-7.384-16.498-16.492-16.498M144.19 52.813c-.122.092-.26.268-.48.41-.404.338-1.013.687-1.647.972a7.695 7.695 0 0 1-1.844.48c-.257.045-.48.024-.632.042l-.239.018-.24-.018c-.154-.018-.375.003-.634-.042a7.725 7.725 0 0 1-1.846-.48c-.632-.285-1.24-.634-1.645-.971-.22-.143-.358-.32-.478-.411l-.18-.162-.16-.179c-.093-.12-.27-.258-.41-.481-.34-.403-.687-1.012-.97-1.644a7.582 7.582 0 0 1-.48-1.847c-.048-.257-.027-.481-.045-.632-.012-.152-.016-.239-.016-.239s.004-.09.016-.242c.018-.15-.003-.375.046-.632.062-.52.219-1.2.48-1.846.282-.635.63-1.244.968-1.647.14-.22.318-.358.41-.478l.161-.183.18-.159c.12-.093.259-.269.478-.413.404-.335 1.013-.682 1.645-.967a7.735 7.735 0 0 1 1.846-.482c.259-.044.48-.023.634-.044l.24-.016.24.016c.151.021.374 0 .63.044.521.064 1.2.223 1.845.482.634.285 1.243.632 1.647.967.22.144.358.32.48.413.116.101.18.159.18.159l.158.183c.095.12.27.257.413.478.337.403.684 1.012.97 1.647.259.646.416 1.325.48 1.846.045.257.026.481.044.632l.016.242-.016.24c-.018.15.001.374-.044.631-.064.52-.221 1.2-.48 1.847-.286.632-.633 1.241-.97 1.644-.143.223-.318.362-.413.481l-.159.179s-.063.06-.18.162m4.984-3.632c.016-.113.038-.23.05-.334.061-.363.045-.671.066-.884.012-.214.016-.334.016-.334s-.004-.124-.016-.337c-.021-.213-.005-.52-.065-.883-.013-.106-.035-.222-.051-.335.308-.092.637-.192.965-.3 1.269-.406 2.516-.909 2.516-.909s-.075-.31-.193-.777c-.102-.469-.336-1.065-.558-1.666-.491-1.183-1.198-2.253-1.197-2.253 0 0-1.227.518-2.417 1.135-.31.156-.614.316-.895.472-.067-.094-.136-.192-.203-.274-.206-.304-.44-.506-.578-.671l-.222-.25-.25-.223c-.166-.136-.369-.372-.672-.578-.083-.068-.181-.136-.273-.203.154-.284.317-.585.473-.896.614-1.19 1.13-2.417 1.13-2.417s-1.068-.707-2.251-1.198c-.598-.223-1.193-.457-1.665-.559-.466-.118-.774-.194-.774-.194s-.506 1.249-.91 2.518c-.108.329-.208.66-.298.966-.113-.018-.23-.038-.335-.051-.362-.059-.671-.044-.882-.065l-.336-.018-.339.018c-.21.02-.52.006-.882.065-.105.013-.22.033-.334.05a46.503 46.503 0 0 0-.298-.965c-.405-1.27-.911-2.518-.911-2.518s-.311.076-.774.194c-.47.102-1.066.336-1.665.559-1.185.49-2.252 1.198-2.252 1.198a38.045 38.045 0 0 0 1.604 3.311c-.091.069-.19.137-.273.205-.305.206-.506.442-.671.578l-.247.222-.228.25c-.134.166-.368.368-.576.672-.067.082-.134.18-.201.274a29.824 29.824 0 0 0-.895-.472c-1.192-.617-2.42-1.135-2.42-1.135s-.703 1.07-1.196 2.253c-.22.601-.455 1.197-.558 1.666-.118.466-.195.777-.195.777a42.155 42.155 0 0 0 3.485 1.209c-.02.113-.041.229-.053.335-.06.362-.044.67-.063.883-.014.213-.017.337-.017.337s.003.12.017.334c.02.213.003.52.063.884.012.103.033.221.053.334-.308.09-.639.19-.967.3-1.269.404-2.518.91-2.518.91s.077.311.195.775c.103.47.337 1.067.558 1.667a15.58 15.58 0 0 0 1.197 2.251s1.227-.516 2.419-1.133c.307-.154.612-.318.895-.47.067.09.134.188.201.27.208.305.442.508.576.671l.228.253.247.224c.165.134.366.368.67.578.084.064.183.133.274.201-.154.282-.316.586-.471.896-.617 1.189-1.133 2.417-1.133 2.417s1.067.705 2.252 1.198c.6.225 1.195.455 1.665.559l.774.193s.506-1.248.911-2.518c.107-.328.207-.659.298-.967.113.02.23.04.334.053.362.059.671.046.882.064.215.013.34.018.34.018s.12-.005.335-.018c.21-.018.52-.005.882-.064.105-.013.222-.033.335-.053.09.308.19.639.298.967.404 1.27.91 2.518.91 2.518l.774-.193c.472-.104 1.067-.334 1.665-.559 1.183-.493 2.252-1.198 2.252-1.197 0 0-.517-1.23-1.131-2.418-.156-.31-.32-.614-.473-.896.092-.068.19-.137.273-.201.303-.21.506-.444.671-.578l.25-.224s.08-.094.223-.253c.138-.163.372-.366.578-.67.067-.083.136-.181.203-.271.281.152.586.316.895.47 1.19.616 2.417 1.133 2.417 1.133-.001 0 .706-1.07 1.197-2.251.222-.6.456-1.197.558-1.667.118-.464.193-.775.193-.775s-1.247-.506-2.516-.91c-.328-.11-.657-.21-.965-.3M142.759 72.731c0-3.775 3.069-6.845 6.841-6.845 3.772 0 6.843 3.07 6.843 6.845s-3.07 6.846-6.843 6.846c-3.772 0-6.841-3.071-6.841-6.846zm-5.025-4.21a12.72 12.72 0 0 0-.583 6.08l1.739-.26a10.762 10.762 0 0 0 1.147 3.492l-1.543.827a12.6 12.6 0 0 0 2.62 3.368l1.187-1.3a10.78 10.78 0 0 0 3.085 1.998l-.678 1.61c1.324.56 2.722.884 4.16.967l.1-1.757c.211.012.42.033.632.033 1.05 0 2.06-.159 3.02-.437l.487 1.686a12.574 12.574 0 0 0 3.842-1.873l-1.027-1.43a10.863 10.863 0 0 0 2.578-2.614l1.44 1.004a12.562 12.562 0 0 0 1.809-3.874l-1.697-.46c.248-.91.392-1.86.392-2.85 0-.271-.02-.54-.04-.807l1.749-.13a12.505 12.505 0 0 0-1.034-4.146l-1.604.707a10.85 10.85 0 0 0-2.038-3.057l1.28-1.208a12.622 12.622 0 0 0-3.41-2.566l-.803 1.562a10.817 10.817 0 0 0-3.509-1.099l.23-1.74a12.894 12.894 0 0 0-1.665-.108c-.874 0-1.748.09-2.594.268l.358 1.71a10.72 10.72 0 0 0-3.41 1.37l-.92-1.5a12.643 12.643 0 0 0-3.208 2.808l1.36 1.105a10.852 10.852 0 0 0-1.795 3.208l-1.657-.586z" mask="url(#b)"></path> <path fill="#354B5E" d="M531.107 102.394l-6.052-5.798-.259 5.27 6.31.528zm-17.301 40.227v-12.182h4.97l-9.949-12.182-9.947 12.182h4.975v12.182h9.951zm-8.79-39.914h14.206v-2.17h-14.206v2.17zm0 5.857h22.426v-2.173h-22.426v2.173zm0 5.724h22.426v-2.168h-22.426v2.168zm-2.896-23.894H525.75l.73.7 10.245 9.815.766.735v32.032a6.423 6.423 0 0 1-1.887 4.545l-.007-.003a6.4 6.4 0 0 1-4.537 1.89h-13.278v-4.973h13.278c.403 0 .77-.163 1.03-.423v-.008a1.45 1.45 0 0 0 .432-1.028V104.51l-8.846-.745-.953-.08.048-.959.358-7.358H502.12a1.45 1.45 0 0 0-1.029.43h-.008c-.26.263-.422.626-.422 1.03v25.144l-4.973 6.09V96.828a6.41 6.41 0 0 1 1.896-4.54l-.007-.007a6.412 6.412 0 0 1 4.543-1.888z" mask="url(#b)"></path> <path fill="#253D80" d="M176.183 219.78h-4.682v-18.815c0-2.246.054-4.026.16-5.343-.306.318-.68.672-1.126 1.056-.445.387-1.936 1.608-4.473 3.668l-2.352-2.97 8.568-6.738h3.905v29.142zM190.428 205.21c0 3.974.41 6.81 1.226 8.51.817 1.7 2.121 2.552 3.915 2.552 1.792 0 3.105-.863 3.935-2.59.83-1.73 1.245-4.552 1.245-8.472 0-3.909-.416-6.733-1.245-8.482-.83-1.747-2.143-2.621-3.935-2.621-1.794 0-3.098.856-3.915 2.57-.816 1.716-1.226 4.559-1.226 8.533m15.041 0c0 5.062-.813 8.823-2.44 11.281-1.627 2.46-4.113 3.687-7.46 3.687-3.242 0-5.699-1.268-7.373-3.808-1.673-2.536-2.509-6.258-2.509-11.16 0-5.143.813-8.934 2.44-11.372 1.627-2.44 4.108-3.657 7.442-3.657 3.254 0 5.717 1.277 7.391 3.826 1.673 2.553 2.51 6.286 2.51 11.203M213.72 205.21c0 3.974.408 6.81 1.225 8.51.817 1.7 2.121 2.552 3.915 2.552 1.792 0 3.105-.863 3.934-2.59.83-1.73 1.246-4.552 1.246-8.472 0-3.909-.416-6.733-1.246-8.482-.83-1.747-2.142-2.621-3.934-2.621-1.794 0-3.098.856-3.915 2.57-.817 1.716-1.226 4.559-1.226 8.533m15.04 0c0 5.062-.813 8.823-2.44 11.281-1.626 2.46-4.112 3.687-7.46 3.687-3.241 0-5.698-1.268-7.372-3.808-1.673-2.536-2.51-6.258-2.51-11.16 0-5.143.814-8.934 2.441-11.372 1.627-2.44 4.108-3.657 7.442-3.657 3.254 0 5.717 1.277 7.39 3.826 1.674 2.553 2.51 6.286 2.51 11.203M246.054 219.78h-4.683v-18.815c0-2.246.055-4.026.16-5.343-.305.318-.68.672-1.125 1.056-.445.387-1.936 1.608-4.473 3.668l-2.352-2.97 8.568-6.738h3.905v29.142zM260.3 205.21c0 3.974.409 6.81 1.225 8.51.817 1.7 2.121 2.552 3.915 2.552 1.792 0 3.105-.863 3.935-2.59.83-1.73 1.245-4.552 1.245-8.472 0-3.909-.416-6.733-1.245-8.482-.83-1.747-2.143-2.621-3.935-2.621-1.794 0-3.098.856-3.915 2.57-.816 1.716-1.226 4.559-1.226 8.533m15.041 0c0 5.062-.813 8.823-2.44 11.281-1.627 2.46-4.113 3.687-7.46 3.687-3.242 0-5.699-1.268-7.373-3.808-1.673-2.536-2.509-6.258-2.509-11.16 0-5.143.813-8.934 2.44-11.372 1.627-2.44 4.108-3.657 7.442-3.657 3.254 0 5.717 1.277 7.391 3.826 1.673 2.553 2.51 6.286 2.51 11.203M292.635 219.78h-4.682v-18.815c0-2.246.054-4.026.16-5.343-.306.318-.68.672-1.126 1.056-.445.387-1.936 1.608-4.473 3.668l-2.352-2.97 8.568-6.738h3.905v29.142zM306.88 205.21c0 3.974.41 6.81 1.226 8.51.817 1.7 2.121 2.552 3.915 2.552 1.792 0 3.105-.863 3.935-2.59.83-1.73 1.245-4.552 1.245-8.472 0-3.909-.416-6.733-1.245-8.482-.83-1.747-2.143-2.621-3.935-2.621-1.794 0-3.098.856-3.915 2.57-.816 1.716-1.226 4.559-1.226 8.533m15.041 0c0 5.062-.813 8.823-2.44 11.281-1.627 2.46-4.113 3.687-7.46 3.687-3.242 0-5.699-1.268-7.373-3.808-1.673-2.536-2.509-6.258-2.509-11.16 0-5.143.814-8.934 2.44-11.372 1.627-2.44 4.108-3.657 7.442-3.657 3.254 0 5.717 1.277 7.391 3.826 1.673 2.553 2.51 6.286 2.51 11.203M339.215 219.78h-4.682v-18.815c0-2.246.054-4.026.16-5.343-.306.318-.68.672-1.126 1.056-.445.387-1.936 1.608-4.473 3.668l-2.352-2.97 8.568-6.738h3.905v29.142zM353.461 205.21c0 3.974.41 6.81 1.226 8.51.817 1.7 2.121 2.552 3.915 2.552 1.792 0 3.105-.863 3.935-2.59.83-1.73 1.245-4.552 1.245-8.472 0-3.909-.416-6.733-1.245-8.482-.83-1.747-2.143-2.621-3.935-2.621-1.794 0-3.098.856-3.915 2.57-.816 1.716-1.226 4.559-1.226 8.533m15.041 0c0 5.062-.813 8.823-2.44 11.281-1.627 2.46-4.113 3.687-7.46 3.687-3.242 0-5.699-1.268-7.373-3.808-1.673-2.536-2.509-6.258-2.509-11.16 0-5.143.814-8.934 2.44-11.372 1.627-2.44 4.108-3.657 7.442-3.657 3.254 0 5.717 1.277 7.391 3.826 1.673 2.553 2.51 6.286 2.51 11.203M167.138 242.765c0 3.974.41 6.81 1.226 8.51.817 1.7 2.121 2.552 3.915 2.552 1.792 0 3.105-.863 3.934-2.59.83-1.73 1.246-4.552 1.246-8.472 0-3.908-.416-6.733-1.246-8.481-.83-1.747-2.142-2.622-3.934-2.622-1.794 0-3.098.857-3.915 2.57-.817 1.717-1.226 4.56-1.226 8.533m15.04 0c0 5.063-.812 8.824-2.44 11.281-1.626 2.46-4.112 3.688-7.46 3.688-3.241 0-5.698-1.27-7.372-3.809-1.673-2.536-2.51-6.258-2.51-11.16 0-5.143.814-8.933 2.441-11.371 1.627-2.44 4.108-3.658 7.442-3.658 3.254 0 5.717 1.277 7.391 3.826 1.673 2.553 2.509 6.286 2.509 11.203M199.473 257.335h-4.682V238.52c0-2.246.054-4.026.16-5.343-.306.318-.68.672-1.126 1.056-.445.387-1.936 1.608-4.473 3.668l-2.352-2.97 8.568-6.738h3.905v29.142zM222.764 257.335h-4.682V238.52c0-2.246.054-4.026.16-5.343-.306.318-.68.672-1.126 1.056-.445.387-1.936 1.608-4.473 3.668l-2.352-2.97 8.568-6.738h3.905v29.142zM237.01 242.765c0 3.974.409 6.81 1.225 8.51.817 1.7 2.121 2.552 3.915 2.552 1.792 0 3.105-.863 3.935-2.59.83-1.73 1.245-4.552 1.245-8.472 0-3.908-.416-6.733-1.245-8.481-.83-1.747-2.143-2.622-3.935-2.622-1.794 0-3.098.857-3.915 2.57-.816 1.717-1.226 4.56-1.226 8.533m15.041 0c0 5.063-.813 8.824-2.44 11.281-1.627 2.46-4.113 3.688-7.46 3.688-3.242 0-5.699-1.27-7.373-3.809-1.673-2.536-2.509-6.258-2.509-11.16 0-5.143.813-8.933 2.44-11.371 1.627-2.44 4.108-3.658 7.442-3.658 3.254 0 5.717 1.277 7.391 3.826 1.673 2.553 2.51 6.286 2.51 11.203M269.344 257.335h-4.682V238.52c0-2.246.054-4.026.16-5.343-.306.318-.68.672-1.126 1.056-.445.387-1.936 1.608-4.473 3.668l-2.352-2.97 8.568-6.738h3.905v29.142zM283.59 242.765c0 3.974.41 6.81 1.226 8.51.817 1.7 2.121 2.552 3.915 2.552 1.792 0 3.105-.863 3.934-2.59.83-1.73 1.246-4.552 1.246-8.472 0-3.908-.416-6.733-1.246-8.481-.83-1.747-2.142-2.622-3.934-2.622-1.794 0-3.098.857-3.915 2.57-.816 1.717-1.226 4.56-1.226 8.533m15.041 0c0 5.063-.813 8.824-2.44 11.281-1.627 2.46-4.113 3.688-7.46 3.688-3.242 0-5.699-1.27-7.373-3.809-1.673-2.536-2.509-6.258-2.509-11.16 0-5.143.813-8.933 2.44-11.371 1.627-2.44 4.108-3.658 7.442-3.658 3.254 0 5.717 1.277 7.391 3.826 1.673 2.553 2.509 6.286 2.509 11.203M315.925 257.335h-4.682V238.52c0-2.246.054-4.026.16-5.343-.306.318-.68.672-1.126 1.056-.445.387-1.936 1.608-4.473 3.668l-2.352-2.97 8.568-6.738h3.905v29.142zM330.17 242.765c0 3.974.41 6.81 1.226 8.51.817 1.7 2.121 2.552 3.915 2.552 1.792 0 3.105-.863 3.935-2.59.83-1.73 1.245-4.552 1.245-8.472 0-3.908-.416-6.733-1.245-8.481-.83-1.747-2.143-2.622-3.935-2.622-1.794 0-3.098.857-3.915 2.57-.816 1.717-1.226 4.56-1.226 8.533m15.041 0c0 5.063-.813 8.824-2.44 11.281-1.627 2.46-4.113 3.688-7.46 3.688-3.242 0-5.699-1.27-7.373-3.809-1.673-2.536-2.509-6.258-2.509-11.16 0-5.143.814-8.933 2.44-11.371 1.627-2.44 4.108-3.658 7.442-3.658 3.254 0 5.717 1.277 7.391 3.826 1.673 2.553 2.51 6.286 2.51 11.203M353.461 242.765c0 3.974.41 6.81 1.226 8.51.817 1.7 2.121 2.552 3.915 2.552 1.792 0 3.105-.863 3.935-2.59.83-1.73 1.245-4.552 1.245-8.472 0-3.908-.416-6.733-1.245-8.481-.83-1.747-2.143-2.622-3.935-2.622-1.794 0-3.098.857-3.915 2.57-.816 1.717-1.226 4.56-1.226 8.533m15.041 0c0 5.063-.813 8.824-2.44 11.281-1.627 2.46-4.113 3.688-7.46 3.688-3.242 0-5.699-1.27-7.373-3.809-1.673-2.536-2.509-6.258-2.509-11.16 0-5.143.814-8.933 2.44-11.371 1.627-2.44 4.108-3.658 7.442-3.658 3.254 0 5.717 1.277 7.391 3.826 1.673 2.553 2.51 6.286 2.51 11.203" mask="url(#b)"></path> </g> </g> </svg> 